<svg width="29" height="29" viewBox="0 0 29 29" fill="none" xmlns="http://www.w3.org/2000/svg">
<path d="M14.5 2C7.59644 2 2 7.59644 2 14.5C2 21.4035 7.59644 27 14.5 27C21.4035 27 27 21.4035 27 14.5C27 7.59644 21.4035 2 14.5 2Z" stroke="black" stroke-width="3.30369" stroke-linecap="round" stroke-linejoin="round"/>
<path d="M4.83887 22.4321C4.83887 22.4321 7.62514 18.875 14.5001 18.875C21.3751 18.875 24.1615 22.4321 24.1615 22.4321" stroke="black" stroke-width="3.30369" stroke-linecap="round" stroke-linejoin="round"/>
<path d="M14.5 14.5C16.5711 14.5 18.25 12.8211 18.25 10.75C18.25 8.67891 16.5711 6.99997 14.5 6.99997C12.4289 6.99997 10.75 8.67891 10.75 10.75C10.75 12.8211 12.4289 14.5 14.5 14.5Z" stroke="black" stroke-width="3.30369" stroke-linecap="round" stroke-linejoin="round"/>
</svg>
